<svg width="1650" height="360" xmlns="http://www.w3.org/2000/svg">
 <style>.st0{fill:#757575;}</style>

 <g>
  <title>background</title>
  <rect x="-1" y="-1" width="1652" height="362" id="canvas_background" fill="none"/>
 </g>
 <g>
  <title>Layer 1</title>
  <g id="XMLID_6_">
   <path id="XMLID_3_" class="st0" d="m446.8999,181.14984c0,22 -6.5,39.6 -19.6,52.7c-14.8,15.6 -34.1,23.4 -57.9,23.4c-22.8,0 -42.1,-7.9 -58.1,-23.7c-15.9,-15.8 -23.9,-35.4 -23.9,-58.7s8,-42.9 23.9,-58.7s35.3,-23.7 58.1,-23.7c11.3,0 22.1,2.2 32.4,6.6c10.3,4.4 18.5,10.3 24.7,17.6l-13.9,13.9c-10.5,-12.6 -24.9,-18.8 -43.3,-18.8c-16.6,0 -31,5.8 -43.1,17.5c-12.1,11.7 -18.2,26.8 -18.2,45.5s6.1,33.8 18.2,45.5c12.1,11.7 26.5,17.5 43.1,17.5c17.6,0 32.3,-5.9 44.1,-17.6c7.6,-7.6 12,-18.3 13.2,-31.9l-57.3,0l0,-19l76.4,0c0.8,4.1 1.2,8.1 1.2,11.9z"/>
   <path id="XMLID_20_" class="st0" d="m467.2999,253.64984l0,-157.8l48.2,0c24.2,0 43.6,7.3 58.2,21.9c14.5,14.6 21.8,33.6 21.8,57s-7.3,42.3 -21.8,57c-14.5,14.6 -33.9,21.9 -58.2,21.9l-48.2,0zm20.3,-19.4l28,0c18.2,0 32.6,-5.2 43.3,-15.6c10.6,-10.4 16,-25 16,-43.8c0,-18.7 -5.3,-33.2 -16,-43.7s-25.1,-15.8 -43.3,-15.8l-28,0l0,118.9z"/>
   <path id="XMLID_23_" class="st0" d="m767.9999,181.14984c0,22 -6.5,39.6 -19.6,52.7c-14.8,15.6 -34.1,23.4 -57.9,23.4c-22.8,0 -42.1,-7.9 -58.1,-23.7c-15.9,-15.8 -23.9,-35.4 -23.9,-58.7s8,-42.9 23.9,-58.7s35.3,-23.7 58.1,-23.7c11.3,0 22.1,2.2 32.4,6.6c10.3,4.4 18.5,10.3 24.7,17.6l-13.9,13.9c-10.5,-12.6 -24.9,-18.8 -43.3,-18.8c-16.6,0 -31,5.8 -43.1,17.5s-18.2,26.8 -18.2,45.5s6.1,33.8 18.2,45.5s26.5,17.5 43.1,17.5c17.6,0 32.3,-5.9 44.1,-17.6c7.6,-7.6 12,-18.3 13.2,-31.9l-57.3,0l0,-19l76.4,0c0.8,4.1 1.2,8.1 1.2,11.9z"/>
   <text fill="#000000" stroke-width="0" x="905.138371" y="209.299911" id="svg_6" font-size="24" font-family="'Trebuchet MS', Gadget, sans-serif" text-anchor="start" xml:space="preserve" transform="matrix(14.498759269714354,0,0,5.053811550140381,-12231.383449554443,-840.8017103672029) " stroke="null"/>
   <text fill="#444444" stroke-width="0" stroke-opacity="null" x="546.20375" y="195.286223" id="svg_9" font-size="80" font-family="Arvo, sans-serif" text-anchor="start" xml:space="preserve" font-weight="normal" transform="matrix(2.107368080650871,0,0,2.7794706582442887,-355.31087251878137,-289.0919641561818) " stroke="null" opacity="0.8" font-style="normal">TRABZON</text>
  </g>
  <g stroke="null" id="XMLID_261_">
   <path stroke="null" id="XMLID_259_" class="st0" d="m79.583651,4.74984l-56.583751,0l161.692885,271.200006l28.379466,-47.460001l-133.488601,-223.740005z"/>
   <path stroke="null" id="XMLID_258_" class="st0" d="m234.794806,158.994843l-92.145675,-154.245003l-56.408569,0l130.160145,218.316005l18.394099,-30.849001c2.978092,-4.746 4.905093,-10.509 4.905093,-16.611c-0.175182,-6.102 -1.927001,-11.6955 -4.905093,-16.611z"/>
   <path stroke="null" id="XMLID_257_" class="st0" d="m121.627304,181.199344l-97.050768,162.550504l56.583751,0l68.846483,-115.260003l-28.379466,-47.290501z"/>
   <path stroke="null" id="XMLID_256_" class="st0" d="m153.160045,234.083345l-65.342845,109.666502l56.408569,0l37.313743,-62.376001l-28.379466,-47.290501z"/>
  </g>
  <text fill="#000000" stroke-width="0" stroke-opacity="null" fill-opacity="null" x="332" y="167" id="svg_4" font-size="24" font-family="'Trebuchet MS', Gadget, sans-serif" text-anchor="start" xml:space="preserve" transform="matrix(14.895781517028809,0,0,5.759058878219776,-4099.2555475234985,-663.030591561217) " stroke="null"/>
 </g>
</svg>